# File created by Blade
# Date/Time:  Thu Sep 25 19:43:58 2014
# Frame Rate: 120.000 fps
#------------------------------------------------------
:FULLY-SPECIFIED
:DEGREES
1309
root -2.782446 33.028189 -4.531189 10.528123 2.476512 -0.300899
Spine -10.373324 4.723042 1.450923
Head -25.319676 -5.174551 9.518917
LeftShoulder -14.939889 17.713127 29.410776
LeftArm 19.370082 -21.629124 -28.588410
LeftForeArm 14.011421 -0.000000 11.375469
LeftHand -24.763660 0.000000 -12.912776
LeftHandThumb1 -26.253704 0.000000 33.147579
RightShoulder -20.213209 15.054736 -41.321568
RightArm -3.961442 9.639181 29.582535
RightForeArm -28.589031 -0.000000 12.476680
RightHand -11.796192 0.000000 13.460943
RightHandThumb1 -24.326973 -0.000000 -32.862282
LeftUpLeg -6.061910 2.922066 0.083428
LeftLeg 0.189383 -0.000000 -0.000000
LeftFoot -9.860862 4.037095 -15.572877
LeftToeBase 10.455125 -0.000000 -0.000000
RightUpLeg -5.628881 -4.048887 2.885488
RightLeg 1.084894 -0.000000 -0.000000
RightFoot -9.650233 -6.255942 1.026130
RightToeBase 1.278979 -0.000000 -0.000000
1310
root -2.787731 33.028532 -4.539426 10.538986 2.456555 -0.285183
Spine -10.355800 4.687462 1.462194
Head -25.349526 -5.117531 9.607099
LeftShoulder -14.920002 17.745436 29.395593
LeftArm 19.378242 -21.679723 -28.532907
LeftForeArm 13.865125 -0.000000 11.401343
LeftHand -24.844927 -0.000000 -12.946168
LeftHandThumb1 -26.253704 0.000000 33.147579
RightShoulder -20.192855 15.025075 -41.278696
RightArm -3.952986 9.631342 29.586906
RightForeArm -28.565119 -0.000000 12.511506
RightHand -11.836806 -0.000000 13.415172
RightHandThumb1 -24.326973 -0.000000 -32.862282
LeftUpLeg -6.090746 2.930596 0.073337
LeftLeg 0.195520 -0.000000 -0.000000
LeftFoot -9.844562 4.047809 -15.590448
LeftToeBase 10.405903 -0.000000 -0.000000
RightUpLeg -5.660790 -4.029832 2.873407
RightLeg 1.094203 -0.000000 -0.000000
RightFoot -9.646771 -6.249436 1.052010
RightToeBase 1.276492 -0.000000 -0.000000
1311
root -2.792641 33.028678 -4.547141 10.540446 2.414604 -0.269115
Spine -10.315872 4.672915 1.456063
Head -25.415164 -5.038575 9.745371
LeftShoulder -14.878504 17.724149 29.430025
LeftArm 19.328241 -21.733401 -28.525665
LeftForeArm 13.826184 -0.000000 11.430861
LeftHand -24.797492 -0.000000 -12.892285
LeftHandThumb1 -26.253704 0.000000 33.147579
RightShoulder -20.192017 15.025896 -41.241577
RightArm -3.928220 9.596612 29.604505
RightForeArm -28.529375 -0.000000 12.485172
RightHand -11.824371 -0.000000 13.441188
RightHandThumb1 -24.326973 -0.000000 -32.862282
LeftUpLeg -6.103277 2.965738 0.060038
LeftLeg 0.196015 -0.000000 -0.000000
LeftFoot -9.833101 4.046527 -15.611833
LeftToeBase 10.512964 -0.000000 -0.000000
RightUpLeg -5.682040 -3.985805 2.855962
RightLeg 1.103893 -0.000000 -0.000000
RightFoot -9.645441 -6.243637 1.070336
RightToeBase 1.291370 -0.000000 -0.000000
1312
root -2.797360 33.029289 -4.555420 10.532406 2.363307 -0.251592
Spine -10.267824 4.666019 1.441443
Head -25.449598 -4.956716 9.894193
LeftShoulder -14.812906 17.729078 29.444355
LeftArm 19.275941 -21.795689 -28.476649
LeftForeArm 13.905409 -0.000000 11.434085
LeftHand -24.706959 -0.000000 -12.934387
LeftHandThumb1 -26.253704 0.000000 33.147579
RightShoulder -20.175604 15.026602 -41.180028
RightArm -3.904602 9.493010 29.622558
RightForeArm -28.297870 0.000000 12.461704
RightHand -11.845580 -0.000000 13.315344
RightHandThumb1 -24.326973 -0.000000 -32.862282
LeftUpLeg -6.110016 3.008550 0.042283
LeftLeg 0.204576 -0.000000 -0.000000
LeftFoot -9.808226 4.054283 -15.650206
LeftToeBase 10.432804 -0.000000 -0.000000
RightUpLeg -5.695285 -3.935057 2.836680
RightLeg 1.111457 -0.000000 -0.000000
RightFoot -9.635217 -6.252318 1.068763
RightToeBase 1.295745 -0.000000 -0.000000
1313
root -2.800732 33.029232 -4.563525 10.518729 2.317357 -0.229523
Spine -10.208326 4.640730 1.427855
Head -25.459793 -4.856762 10.075649
LeftShoulder -14.737084 17.712590 29.487392
LeftArm 19.191103 -21.788049 -28.436359
LeftForeArm 13.817625 -0.000000 11.446839
LeftHand -24.812222 0.000000 -12.795751
LeftHandThumb1 -26.253704 0.000000 33.147579
RightShoulder -20.136721 15.044846 -41.121530
RightArm -3.916566 9.421385 29.616221
RightForeArm -28.381743 -0.000000 12.472776
RightHand -11.783644 -0.000000 13.442401
RightHandThumb1 -24.326973 -0.000000 -32.862282
LeftUpLeg -6.102824 3.035545 0.018982
LeftLeg 0.195781 -0.000000 -0.000000
LeftFoot -9.792991 4.077050 -15.657054
LeftToeBase 10.436232 -0.000000 -0.000000
RightUpLeg -5.675501 -3.830935 2.805149
RightLeg 1.066703 -0.000000 -0.000000
RightFoot -9.599489 -6.317303 1.083077
RightToeBase 1.229032 -0.000000 -0.000000
